<svg width="314" height="271" viewBox="0 0 314 271" fill="none" xmlns="http://www.w3.org/2000/svg">
<path d="M156.993 263.499C74.6185 263.499 7.6004 205.983 7.6004 135.284C7.6004 64.584 74.6185 7.05765 156.993 7.05765C239.367 7.05765 306.385 64.5731 306.385 135.273C306.385 205.973 239.367 263.488 156.993 263.488V263.499ZM156.993 9.37087C75.8891 9.37087 9.91362 65.8546 9.91362 135.273C9.91362 204.691 75.9 261.186 157.004 261.186C238.107 261.186 304.094 204.702 304.094 135.273C304.094 65.8437 238.097 9.37087 156.993 9.37087Z" fill="#D85B31"/>
<path d="M156.995 270.559C70.4282 270.559 0 209.873 0 135.274C0 60.6758 70.4282 0 156.995 0C243.561 0 313.989 60.6866 313.989 135.274C313.989 209.862 243.561 270.548 156.995 270.548V270.559ZM156.995 2.31322C71.6988 2.31322 2.31322 61.9573 2.31322 135.274C2.31322 208.591 71.7097 268.246 157.005 268.246C242.301 268.246 311.698 208.602 311.698 135.274C311.698 61.9464 242.29 2.31322 156.995 2.31322Z" fill="#D85B31"/>
<path d="M44.2083 162.509L44.936 164.311L36.389 167.765L39.3756 175.15L37.8008 175.791L34.0867 166.592L44.2083 162.498V162.509Z" fill="#D85B31"/>
<path d="M43.554 186.136L42.544 184.474L51.8838 178.827L52.8938 180.488L43.554 186.136Z" fill="#D85B31"/>
<path d="M49.3732 194.765L57.7463 187.771L64.3819 195.72L63.0787 196.806L57.6703 190.334L55.4006 192.234L60.255 198.044L58.9518 199.13L54.0973 193.32L50.6112 196.231L49.384 194.765H49.3732Z" fill="#D85B31"/>
<path d="M78.4322 208.323L77.3462 209.626L70.7215 204.087L68.9621 206.183L74.9243 211.157L73.8383 212.461L67.8761 207.487L65.9104 209.843L72.5351 215.382L71.4491 216.685L63.3474 209.919L70.3413 201.546L78.443 208.312L78.4322 208.323Z" fill="#D85B31"/>
<path d="M85.2498 213.032L86.9222 214.031L82.2089 221.959L89.0617 226.031L88.1929 227.498L79.6676 222.426L85.2498 213.043V213.032Z" fill="#D85B31"/>
<path d="M109.292 230.939C108.064 233.936 104.654 235.12 101.233 233.719C97.8125 232.318 96.2161 229.082 97.4433 226.084C98.6704 223.087 102.081 221.903 105.501 223.304C108.922 224.705 110.519 227.942 109.292 230.939ZM99.2895 226.845C98.4098 228.995 99.4524 231.134 101.885 232.134C104.318 233.133 106.566 232.34 107.445 230.19C108.325 228.039 107.283 225.9 104.85 224.901C102.417 223.902 100.169 224.694 99.2895 226.845Z" fill="#D85B31"/>
<path d="M127.237 241.512L125.586 241.11L120.33 231.13L118.342 239.362L116.529 238.927L119.092 228.317L121.047 228.784L126.097 238.341L127.997 230.467L129.811 230.902L127.248 241.512H127.237Z" fill="#D85B31"/>
<path d="M149.684 236.573L148.001 237.323C147.458 235.618 146.1 234.597 144.102 234.412C141.452 234.173 139.432 235.552 139.215 237.876C138.997 240.211 140.703 241.949 143.287 242.188C145.459 242.383 147.566 241.493 147.805 239.962L142.614 239.484L142.766 237.79L149.673 238.419L149.13 244.284L147.316 244.121L147.447 242.731C146.719 243.524 145.047 244.089 143.135 243.904C139.399 243.556 136.923 240.917 137.216 237.681C137.51 234.456 140.496 232.36 144.243 232.707C147.045 232.968 149.054 234.412 149.695 236.584L149.684 236.573Z" fill="#D85B31"/>
<path d="M175.843 243.19L170.478 234.654L171.662 243.733L169.772 243.983L168.36 233.155L171.347 232.764L176.343 240.735L179.123 231.754L182.044 231.374L183.456 242.202L181.566 242.451L180.383 233.372L177.396 242.994L175.832 243.201L175.843 243.19Z" fill="#D85B31"/>
<path d="M200.769 226.492L201.247 228.132L192.961 230.543L193.721 233.172L201.182 230.999L201.66 232.639L194.199 234.811L195.057 237.754L203.343 235.344L203.821 236.983L193.688 239.927L190.647 229.446L200.78 226.503L200.769 226.492Z" fill="#D85B31"/>
<path d="M208.43 223.661L213.458 221.348C216.868 219.773 219.942 220.707 221.332 223.726C222.722 226.745 221.44 229.688 218.03 231.263L213.002 233.576L208.43 223.661ZM217.324 229.732C219.681 228.646 220.485 226.637 219.518 224.551C218.552 222.455 216.51 221.771 214.142 222.868L210.873 224.378L214.045 231.252L217.335 229.743L217.324 229.732Z" fill="#D85B31"/>
<path d="M233.164 223.06L231.513 224.081L225.768 214.795L227.419 213.774L233.164 223.06Z" fill="#D85B31"/>
<path d="M238.893 205.322C241.054 203.573 243.476 203.247 245.442 204.344L244.747 206.038C243.172 205.202 241.521 205.387 239.99 206.636C237.992 208.254 237.525 210.665 238.991 212.479C240.457 214.292 242.911 214.325 244.91 212.707C246.441 211.458 246.962 209.883 246.473 208.167L248.276 207.841C248.95 209.992 248.135 212.305 245.974 214.053C243.129 216.367 239.48 216.258 237.438 213.738C235.396 211.23 236.037 207.635 238.882 205.322H238.893Z" fill="#D85B31"/>
<path d="M258.123 202.367L256.798 203.789L248.815 196.339L250.14 194.917L258.123 202.367Z" fill="#D85B31"/>
<path d="M271.101 185.331L270.145 186.742L258.959 188.154L265.964 192.911L264.911 194.453L255.875 188.328L257.004 186.666L267.723 185.309L261.023 180.758L262.076 179.216L271.112 185.341L271.101 185.331Z" fill="#D85B31"/>
<path d="M270.336 161.051L271.921 161.681L268.75 169.706L271.291 170.716L274.148 163.494L275.733 164.124L272.877 171.346L275.733 172.476L278.904 164.45L280.49 165.08L276.613 174.887L266.459 170.879L270.336 161.073V161.051Z" fill="#D85B31"/>
<path d="M62.2844 94.8139C61.5676 95.7479 60.7857 97.0077 60.3513 97.5615C60.0472 97.9634 59.7431 98.1154 59.4825 97.9199C59.2653 97.757 59.287 97.4747 59.3956 97.062C60.2101 94.26 60.1232 93.7496 54.6714 89.5685L48.1553 84.5619C44.376 81.6623 44.2131 81.6948 41.6827 83.5193C41.2265 83.8452 40.8899 83.932 40.6292 83.7365C40.3577 83.5302 40.3034 83.1935 40.6075 82.7917C41.0745 82.1727 41.9433 81.293 42.823 80.1527C44.6692 77.7526 45.2665 76.6774 47.3408 73.9841C52.217 67.6309 59.6997 66.8055 65.0863 70.9541C68.4638 73.5497 70.2123 77.4159 69.9517 81.4885V81.5102C69.7671 84.0298 68.8114 86.6362 66.9543 89.058C64.7605 91.9143 63.3596 93.4347 62.2844 94.8356V94.8139ZM66.3244 87.1141C67.7253 85.2787 68.3118 83.4325 68.2575 81.6405C68.1597 78.6974 66.2701 75.9281 63.3813 73.7126C58.7005 70.1179 52.3799 71.3125 48.6657 76.1453C46.1788 79.3816 46.4068 79.8269 49.7843 82.4116L56.3004 87.4181C61.8608 91.6971 62.6428 91.8817 66.3135 87.1032L66.3244 87.1141Z" fill="#D85B31"/>
<path d="M90.0459 66.7196C89.8395 66.4264 89.9156 66.0897 90.3065 65.6336C92.37 63.2661 91.7184 62.4733 89.9916 61.3656L84.4855 57.8143C84.2031 57.6948 83.9859 57.6948 83.7361 57.8795L78.3929 61.6045C78.1432 61.7783 78.0454 61.9955 78.1214 62.2995L79.0011 65.6879L79.8591 69.0328C80.3152 70.8031 81.0428 71.3678 83.747 70.26C84.1814 70.0863 84.5181 70.1406 84.7244 70.4338C84.985 70.8031 84.8113 71.1832 84.3226 71.5307C83.6167 72.0303 83.0737 72.2257 81.6944 73.1814L80.7822 73.8222C79.5875 74.6584 79.3704 74.9842 78.773 75.3969C78.4038 75.6575 78.078 75.625 77.8825 75.3535C77.7087 75.1037 77.7196 74.8322 77.9585 74.4195C78.4038 73.6484 78.5341 72.595 78.2083 71.2809L76.9485 66.2201L74.3964 56.0224L73.2126 51.2656C72.8325 49.7452 73.0497 48.9415 73.7122 48.4746C74.3529 48.0293 75.0697 47.9858 76.5576 48.9307L93.5103 59.5845C94.9873 60.5076 96.41 60.942 97.1593 60.9312C97.6806 60.9312 97.9521 60.9963 98.115 61.2352C98.3105 61.5176 98.1693 61.876 97.7675 62.1584C97.0724 62.6471 96.2905 63.0055 95.5411 63.5376L94.151 64.5042C92.8804 65.3947 91.9573 66.2092 91.1971 66.7305C90.7084 67.0672 90.2848 67.0997 90.035 66.7305L90.0459 66.7196ZM78.0671 59.5845L81.8899 56.9238C82.1071 56.7717 82.346 56.4459 82.1723 56.3265L76.601 52.7426C75.9494 52.3191 75.6127 52.5906 75.7974 53.2965L76.3621 55.5011L77.3612 59.4216C77.4481 59.7365 77.7196 59.8343 78.0671 59.5845Z" fill="#D85B31"/>
<path d="M117.382 52.3988L104.002 37.1837C103.426 36.4778 102.786 36.8579 103.068 37.7702L106.218 47.9244C108.248 54.484 108.704 54.7229 111.897 54.5491C112.364 54.5383 112.668 54.6686 112.777 55.0161C112.907 55.4505 112.636 55.7546 112.06 55.9392C111.181 56.2107 109.628 56.5474 108.14 57.0035L107.108 57.3185C105.989 57.666 104.621 58.2416 103.948 58.4479C103.481 58.5891 103.122 58.5131 103.025 58.209C102.959 57.9809 103.133 57.7637 103.459 57.4922C105.74 55.6677 105.957 55.2116 103.926 48.6521L102.025 42.5269C100.234 36.7385 99.7231 36.4995 96.8017 36.2172C96.2479 36.2389 95.9112 36.0977 95.8135 35.7828C95.7157 35.457 95.8569 35.142 96.3456 35.0008C97.0841 34.7728 98.3004 34.5447 99.6797 34.1212L103.883 32.8179C104.23 32.7093 104.654 32.8179 104.893 33.0894L118.142 48.5652C118.446 48.9453 118.848 48.7824 118.88 48.3371L120.531 28.2024C120.553 27.8548 120.879 27.5508 121.215 27.4422L124.68 26.367C126.059 25.9435 127.167 25.4439 127.905 25.2158C128.405 25.0638 128.687 25.2375 128.785 25.5633C128.883 25.8783 128.709 26.1715 128.22 26.4756C125.885 28.0069 125.614 28.5499 127.482 34.5556L129.404 40.7567C131.435 47.3163 131.902 47.5443 135.095 47.3706C135.551 47.3706 135.866 47.49 135.974 47.8375C136.105 48.272 135.811 48.5869 135.247 48.7607C134.367 49.0322 132.814 49.3688 131.326 49.825L130.121 50.1942C129.002 50.5417 127.634 51.1173 126.96 51.3237C126.515 51.4648 126.135 51.3888 126.037 51.0847C125.972 50.8567 126.146 50.6395 126.472 50.368C128.752 48.5435 128.97 48.0873 126.939 41.5278L123.8 31.4061C123.496 30.4396 122.747 30.559 122.649 31.4604L120.542 51.4431C120.368 52.9635 120.281 53.6043 119.576 53.8215C118.837 54.0496 118.5 53.702 117.371 52.4314L117.382 52.3988Z" fill="#D85B31"/>
<path d="M143.263 47.8856C143.263 47.6467 143.502 47.5164 143.882 47.31C146.565 45.8113 146.89 45.3987 146.706 38.9151L146.521 32.4968C146.337 26.0567 145.913 25.7092 143.187 25.0141C142.644 24.8838 142.362 24.6557 142.351 24.3299C142.351 23.9824 142.568 23.7326 143.079 23.7109C143.85 23.6892 145.088 23.7978 146.521 23.7543L152.538 23.5806C157.294 23.4503 160.324 25.7961 160.422 29.0975C160.487 31.2804 158.239 33.3982 156.708 34.3321C156.154 34.6688 156.198 34.9403 156.893 35.0706C159.977 35.5376 162.344 37.1666 162.464 41.2066C162.54 43.8565 160.987 45.7462 159.032 46.8213C157.805 47.5055 156.404 47.8748 155.144 47.9073L147.423 48.1246C146.25 48.1571 144.773 48.3418 144.078 48.3635C143.589 48.3743 143.263 48.2114 143.252 47.8856H143.263ZM149.92 34.8643C150.268 34.886 150.626 34.8752 150.963 34.8643C153.689 34.7883 154.493 34.6036 155.698 33.724C156.741 32.9529 157.479 31.7583 157.436 30.0315C157.349 26.8169 154.949 25.5245 152.31 25.6006C149.41 25.6875 149.052 26.578 149.225 32.4208L149.269 34.0389C149.291 34.6688 149.475 34.8317 149.92 34.8643ZM152.635 46.2023C155.09 46.1371 156.773 45.8113 157.859 45.1163C159.01 44.3669 159.466 43.1723 159.412 41.3913C159.304 37.764 155.817 36.3195 153.211 36.3847L151.006 36.4064C150.659 36.4064 150.301 36.4282 149.964 36.4716C149.551 36.515 149.334 36.7105 149.345 37.1232L149.388 38.8174C149.551 44.6602 149.931 46.2675 152.635 46.1914V46.2023Z" fill="#D85B31"/>
<path d="M171.066 47.8819C171.11 47.6538 171.262 47.5561 171.587 47.48C174.476 46.8719 175.074 46.5243 176.344 39.8562L177.55 33.5464C178.755 27.2367 178.429 26.8131 175.921 25.5208C175.421 25.2601 175.193 24.9995 175.258 24.6737C175.323 24.337 175.595 24.1307 176.094 24.2284C176.855 24.3696 178.038 24.7497 179.45 25.0104L186.27 26.3136C191.494 27.3127 194.155 30.4947 193.46 34.1329C192.819 37.5213 190.017 38.5204 187.91 38.9874L186.661 39.2589C185.706 39.4652 185.358 39.9974 187.726 44.2546L189.681 47.7733C192.015 51.987 193.416 52.8341 193.286 53.4966C193.232 53.7789 192.982 53.9201 192.667 53.855C190.115 53.3662 187.91 51.5743 186.064 47.4583L184.902 44.8845C183.403 41.5721 183.143 39.6607 181.112 38.944C179.95 38.5204 179.342 38.6073 179.157 39.5847L179.005 40.3666C177.789 46.7415 178.049 47.176 180.906 48.881C181.318 49.1199 181.514 49.348 181.449 49.6955C181.362 50.1408 180.971 50.282 180.384 50.1734C179.483 49.9996 177.952 49.5652 176.431 49.272L175.084 49.0113C173.879 48.7833 172.326 48.6312 171.598 48.49C171.207 48.414 170.99 48.186 171.055 47.871L171.066 47.8819ZM181.362 37.695C183.827 38.162 185.912 38.3032 187.454 37.8145C188.866 37.3475 189.811 36.3375 190.158 34.5239C190.799 31.1789 188.269 29.2458 185.293 28.6702C181.166 27.8774 181.123 29.3436 180.2 33.8288L179.863 35.5773C179.591 36.9891 179.863 37.3584 181.372 37.6842L181.362 37.695Z" fill="#D85B31"/>
<path d="M208.939 59.6445C202.195 56.5168 200.175 49.0558 203.107 42.7243C204.856 38.9667 207.929 36.3929 211.567 35.5566C211.589 35.5566 211.632 35.5566 211.632 35.5566C214.141 34.9919 216.9 35.2526 219.658 36.5449C226.532 39.7378 228.629 46.8512 225.675 53.2153C223.22 58.5042 218.127 61.5993 212.566 60.7739C211.372 60.6002 210.155 60.2309 208.928 59.6662L208.939 59.6445ZM210.427 58.3847C211.209 58.7431 212.034 58.9929 212.86 59.1015C216.27 59.5467 219.973 57.8308 222.188 53.0415C225.403 46.1236 222.547 40.5306 218.214 38.5106C216.367 37.6526 214.282 37.468 212.295 38.1088L212.208 38.1522C209.982 38.8907 207.907 40.7044 206.463 43.8104C203.248 50.75 206.094 56.3864 210.427 58.3956V58.3847Z" fill="#D85B31"/>
<path d="M231.443 73.4974C229.64 72.0312 228 69.4031 227.598 68.2845C226.99 66.6012 227.023 66.4165 227.989 65.1676C228.608 64.3748 229.575 63.2454 229.988 62.7241C230.324 62.3005 230.759 62.1485 231.128 62.4417C231.421 62.6806 231.443 63.0499 231.182 63.6255C230.248 65.7215 230.346 67.6872 230.813 69.2945C231.139 70.4131 231.79 71.3905 232.757 72.1724C234.169 73.3236 235.505 73.7689 236.699 73.606C238.111 73.4105 238.708 72.824 239.566 71.7597C240.707 70.3588 241.065 68.2628 239.762 65.9495L238.415 63.582C236.21 59.6832 236.243 56.751 237.981 54.6115C239.002 53.3517 240.413 52.5264 242.032 52.3418C243.932 52.1137 246.115 52.7219 248.254 54.4703C249.742 55.6758 251.23 57.4678 251.654 58.8579C251.914 59.6506 251.817 59.9656 251.621 60.2262C251.306 60.6172 250.513 61.2471 249.438 62.3331C249.036 62.7458 248.569 62.7132 248.276 62.4743C248.026 62.2679 247.994 61.8987 248.135 61.334C248.472 59.8896 248.863 57.8044 246.777 56.1211C245.42 55.0242 243.976 54.5898 242.727 54.9265C242.042 55.1111 241.423 55.5238 240.891 56.1863C239.49 57.913 240.012 59.7918 241.163 61.9747L242.77 65.0699C244.432 68.2302 243.965 71.0973 242.379 73.0412C241.076 74.6485 238.98 75.6259 236.732 75.5934C235.038 75.5608 233.191 74.92 231.454 73.5082L231.443 73.4974Z" fill="#D85B31"/>
<path d="M243.59 83.2921C243.774 83.1509 244.057 83.2596 244.415 83.4768C247.021 85.0189 247.684 84.8886 252.94 81.0767L258.142 77.3082C263.355 73.5288 263.399 72.975 262.443 70.336C262.237 69.8147 262.269 69.4563 262.53 69.2608C262.812 69.0545 263.149 69.0979 263.442 69.5106C263.898 70.1405 264.495 71.2156 265.343 72.3885C267.352 75.1579 268.112 76.2113 268.981 77.3408C270.251 79.0024 271.978 81.2287 272.565 82.0324C273.194 82.8903 272.999 83.2161 272.413 83.6397C271.859 84.0415 271.424 84.2696 269.936 85.2578C269.448 85.5945 268.992 85.4533 268.829 85.2361C268.568 84.8669 268.709 84.4542 268.872 83.9763C269.6 81.9781 268.753 80.5011 267.341 78.5354C265.408 75.8421 264.767 75.8095 259.717 79.4802L258.403 80.4359C257.654 80.9789 257.903 81.1961 258.414 81.902C260.749 84.9103 261.932 85.2144 263.127 84.8126C263.714 84.6062 264.17 84.6171 264.441 84.9972C264.767 85.4533 264.626 85.9312 264.202 86.2352C263.138 87.0063 262.595 86.5393 258.577 88.9829C258.088 89.2652 257.632 89.3087 257.393 88.9829C257.219 88.7548 257.154 88.2878 257.632 87.81C259.055 86.3981 258.729 85.2795 257.1 82.8686C256.654 82.2496 256.426 81.8803 255.894 82.2713L254.526 83.2704C249.975 86.5719 248.281 87.5602 250.866 91.1332C253.755 95.0754 254.939 95.4229 257.382 94.3804C258.077 94.098 258.729 93.9351 259.098 94.4455C259.445 94.9234 259.185 95.6293 258.283 96.2809C257.512 96.8456 256.665 97.2475 255.84 97.7687C254.265 98.7353 253.918 98.4964 252.929 97.1388C252.223 96.1614 250.725 93.9677 249.465 92.1432C248.498 90.7531 247.662 89.5693 245.729 86.8977C245.045 85.9529 244.057 84.8343 243.644 84.2695C243.362 83.8786 243.318 83.5093 243.579 83.3139L243.59 83.2921Z" fill="#D85B31"/>
<path d="M190.288 102.569C189.995 102.569 189.702 102.472 189.463 102.265C188.106 101.125 186.672 100.093 185.206 99.192C185.195 99.192 185.173 99.1811 185.162 99.1703C184.967 99.0508 184.804 98.8662 184.728 98.649L184.652 98.4535C184.381 97.7584 184.131 97.096 183.729 96.4335C181.926 93.4904 178.831 91.8722 174.997 91.8722C174.509 91.8722 174.031 91.894 173.553 91.9483C173.075 92.0026 172.619 91.7854 172.358 91.3944C171.663 90.3301 170.881 89.2875 169.991 88.1906C169.719 87.8648 169.632 87.4196 169.752 87.0177C169.871 86.6159 170.175 86.2901 170.577 86.1598C172.174 85.6276 173.846 85.3561 175.53 85.3561C179.765 85.3561 183.924 87.0938 186.944 90.1237C189.93 93.1103 191.559 97.0851 191.559 101.299C191.559 101.788 191.266 102.244 190.821 102.45C190.647 102.526 190.462 102.569 190.278 102.569H190.288ZM186.563 97.5847C187.53 98.1928 188.464 98.8336 189.365 99.5178C188.985 96.5421 187.639 93.7836 185.477 91.6116C182.089 88.2124 176.996 86.7354 172.38 87.8323C172.901 88.5056 173.379 89.1681 173.835 89.8305C174.226 89.7979 174.617 89.7871 175.008 89.7871C179.591 89.7871 183.327 91.7636 185.521 95.3475C185.999 96.1294 186.281 96.857 186.563 97.5738V97.5847Z" fill="#D85B31"/>
<path d="M176.81 174.598C176.441 174.598 176.094 174.445 175.855 174.163C175.551 173.816 175.453 173.316 175.616 172.882C175.833 172.284 176.028 171.665 176.202 171.046L176.246 170.894C176.463 170.08 176.626 169.309 176.745 168.559C176.821 168.081 177.147 167.701 177.592 167.549C178.537 167.234 179.84 166.735 180.481 166.398C185.705 163.64 189.81 159.665 191.45 155.777L192.471 156.059L191.504 155.657C192.188 153.985 192.449 152.302 192.254 150.662C192.243 150.542 192.221 150.434 192.21 150.325C192.036 149.141 191.624 147.947 190.972 146.774C188.735 142.701 183.435 141.528 179.069 140.953C178.559 140.888 178.146 140.529 178.005 140.03C177.679 138.846 177.473 137.64 177.408 136.446C177.397 136.348 177.386 136.196 177.386 136.033C177.375 135.675 177.549 135.338 177.831 135.143C177.94 135.067 178.081 135.001 178.201 134.98C178.961 134.762 180.992 134.914 182.241 135.077C182.729 135.143 183.185 135.208 183.522 135.262L183.826 135.305C191.537 136.696 196.847 141.094 198.422 147.371C198.466 147.523 198.498 147.675 198.531 147.827C198.965 149.869 198.998 151.911 198.661 153.985C198.585 154.463 198.487 154.93 198.368 155.408C197.369 159.48 194.958 163.368 191.406 166.659C190.396 167.593 189.289 168.505 188.127 169.352C187.225 170.015 186.28 170.634 185.347 171.187C182.555 172.849 179.786 173.979 177.115 174.554C177.028 174.576 176.93 174.587 176.843 174.587L176.81 174.598ZM178.722 169.374C178.602 170.036 178.45 170.731 178.255 171.459L178.211 171.6C178.157 171.785 178.103 171.98 178.048 172.165C180.058 171.578 182.143 170.644 184.239 169.396C185.118 168.874 185.998 168.299 186.856 167.669C187.953 166.865 188.996 166.018 189.951 165.138C193.198 162.13 195.392 158.59 196.304 154.908C196.413 154.484 196.5 154.072 196.565 153.648C196.869 151.835 196.837 150.043 196.478 148.349L196.37 147.871C195.001 142.43 190.299 138.596 183.457 137.358L183.164 137.315C182.838 137.26 182.414 137.206 181.958 137.141C181.002 137.021 180.145 136.956 179.525 136.945C179.591 137.63 179.71 138.292 179.873 138.954C184.63 139.628 190.212 141.05 192.797 145.764C193.557 147.154 194.056 148.577 194.263 150.01C194.284 150.14 194.306 150.282 194.317 150.423C194.545 152.41 194.252 154.441 193.426 156.45C193.383 156.548 193.361 156.602 193.329 156.667C191.548 160.914 187.095 165.269 181.448 168.255C180.774 168.614 179.645 169.048 178.722 169.385V169.374Z" fill="#D85B31"/>
<path d="M175.329 185.026C173.776 185.026 172.213 184.819 170.692 184.417C170.269 184.298 169.943 183.983 169.802 183.57C169.671 183.147 169.758 182.702 170.04 182.365C170.442 181.887 170.812 181.42 171.159 180.964L171.246 180.844C171.702 180.225 172.115 179.65 172.495 179.074C172.549 178.976 172.625 178.89 172.701 178.814C172.929 178.618 173.233 178.52 173.527 178.564C175.156 178.781 177.219 178.499 177.871 178.368C180.77 177.804 182.888 176.109 184.343 173.188C184.441 172.982 184.604 172.265 184.647 171.939C184.658 171.83 184.691 171.722 184.734 171.624C184.832 171.418 184.995 171.244 185.19 171.135C185.56 170.897 187.2 169.865 188.003 169.278C188.394 168.996 188.774 168.714 189.133 168.42C189.513 168.127 190.012 168.062 190.458 168.257C190.892 168.453 191.185 168.866 191.207 169.343C191.478 173.416 190.186 177.098 187.482 179.986C184.474 183.19 180.043 185.036 175.308 185.036L175.329 185.026ZM172.473 182.669C173.418 182.843 174.374 182.93 175.329 182.93C179.478 182.93 183.366 181.333 185.972 178.542C187.916 176.468 189.002 173.894 189.144 171.038C188.438 171.548 187.286 172.287 186.657 172.688C186.526 173.394 186.222 174.1 186.222 174.111C184.485 177.608 181.802 179.726 178.273 180.421C178.175 180.443 176.035 180.855 173.918 180.703C173.613 181.159 173.277 181.615 172.918 182.093L172.832 182.202C172.712 182.365 172.593 182.517 172.462 182.68L172.473 182.669Z" fill="#D85B31"/>
<path d="M160.781 127.328H160.748C160.379 127.328 160.032 127.155 159.793 126.872C158.631 125.493 157.686 124.146 156.98 122.876C156.274 124.157 155.329 125.504 154.167 126.883C153.939 127.155 153.591 127.328 153.222 127.339C152.864 127.361 152.495 127.198 152.245 126.927C151.202 125.819 149.541 123.788 149.465 123.701C149.106 123.234 149.095 122.637 149.399 122.181C154.58 114.285 154.439 104.663 149.03 97.6584L147.499 96.1162C147.075 95.7036 146.999 95.0194 147.325 94.5198C147.988 93.5098 148.704 92.5324 149.475 91.5984L149.736 91.2835C150.04 90.9251 150.496 90.7622 150.942 90.8491C152.842 91.1857 155.296 94.3895 155.763 95.0302C155.807 95.0845 156.383 95.899 156.98 97.1154C157.577 95.899 158.153 95.0845 158.185 95.0411C158.674 94.3895 161.118 91.1749 163.029 90.8382C163.463 90.7513 163.919 90.9251 164.224 91.2726L164.473 91.5767C165.266 92.5433 165.994 93.5315 166.624 94.4981C166.949 94.9976 166.884 95.6493 166.482 96.0837C166.482 96.0837 166.472 96.0945 166.461 96.1054L164.929 97.6475C159.521 104.652 159.38 114.274 164.571 122.181C164.875 122.669 164.843 123.267 164.484 123.69C164.191 124.049 162.681 125.873 161.693 126.927C161.465 127.176 161.118 127.328 160.759 127.328H160.781ZM153.776 125.482C153.776 125.482 153.776 125.482 153.787 125.493C153.787 125.493 153.787 125.493 153.776 125.482ZM157.002 118.162C157.577 118.162 158.044 118.629 158.044 119.194C158.044 119.922 158.218 120.628 158.533 121.29C159.065 122.387 159.836 123.571 160.824 124.809C161.432 124.125 162.106 123.321 162.518 122.832C157.154 114.264 157.447 103.903 163.333 96.3226C163.355 96.29 163.387 96.2574 163.42 96.2249L164.528 95.1171C164.061 94.4438 163.561 93.7596 163.007 93.0863C162.182 93.5858 160.824 95.0194 159.901 96.2792C159.901 96.2792 159.022 97.5498 158.37 99.2114C158.174 99.7327 158.066 100.287 158.055 100.862C158.044 101.427 157.577 101.883 157.012 101.883C156.448 101.883 155.981 101.427 155.97 100.862C155.959 100.276 155.85 99.711 155.644 99.2005C154.992 97.5172 154.113 96.2683 154.102 96.2574C153.19 95.0194 151.832 93.575 151.007 93.0863C150.475 93.7487 149.964 94.4221 149.486 95.1171L150.594 96.2249C150.594 96.2249 150.648 96.29 150.681 96.3226C156.567 103.903 156.86 114.253 151.495 122.832C151.962 123.386 152.614 124.157 153.19 124.809C154.167 123.571 154.938 122.387 155.481 121.279C155.796 120.628 155.959 119.922 155.97 119.194C155.97 118.619 156.448 118.162 157.012 118.162H157.002ZM151.17 123.332C151.17 123.332 151.17 123.332 151.17 123.343C151.17 123.343 151.17 123.343 151.17 123.332ZM148.998 94.6393H149.008C149.008 94.6393 149.008 94.6393 148.998 94.6393Z" fill="#D85B31"/>
<path d="M199.944 154.078C199.672 154.078 199.412 153.991 199.184 153.828C198.825 153.557 198.641 153.133 198.673 152.688C198.804 151.298 198.749 149.93 198.532 148.626C198.456 148.192 198.608 147.758 198.934 147.464L199.748 146.748C200.737 145.879 202.225 144.565 202.583 144.087C206.797 138.374 205.841 128.904 200.563 124.202C200.107 123.8 198.923 122.953 198.13 122.508C196.588 128.448 191.386 133.324 184.577 135.073C184.577 135.073 184.479 135.095 184.468 135.095C183.817 135.258 183.208 135.355 182.589 135.41C178.756 135.768 177.909 135.323 177.572 134.791C177.463 134.617 177.409 134.421 177.409 134.226V133.987C177.409 133.987 177.409 133.911 177.409 133.878L177.431 133.661C177.431 133.661 177.431 133.607 177.431 133.585L177.452 133.346C177.474 133.194 177.485 133.107 177.496 133.031C177.496 132.999 177.496 132.966 177.507 132.944V132.857C177.507 132.857 177.528 132.792 177.528 132.771C177.561 132.575 177.594 132.38 177.637 132.173C177.681 131.956 177.735 131.717 177.811 131.446C177.811 131.391 177.833 131.315 177.854 131.25C177.854 131.218 177.887 131.131 177.898 131.098C177.93 130.968 177.974 130.805 178.017 130.675C178.017 130.653 178.028 130.631 178.039 130.609C178.039 130.588 178.05 130.566 178.05 130.566C178.082 130.457 178.115 130.36 178.158 130.251C178.3 129.871 178.636 129.599 179.038 129.567C181.84 129.295 186.977 128.274 189.92 124.517C190.734 123.474 191.343 122.388 191.701 121.302L192.744 121.498L191.744 121.183L191.82 120.944C191.896 120.705 191.951 120.466 192.005 120.227C192.146 119.554 192.211 118.859 192.179 118.164C192.179 117.914 192.146 117.686 192.125 117.447C192.125 117.403 192.125 117.36 192.125 117.317C192.027 116.535 191.799 115.644 191.44 114.743C191.44 114.732 191.397 114.634 191.386 114.623C189.127 109.106 182.622 104.273 177.181 101.928C176.812 101.776 176.529 101.439 176.442 101.037C176.269 100.223 176.062 99.419 175.823 98.637L175.367 97.475C175.194 97.0406 175.27 96.5519 175.563 96.1935C175.845 95.8351 176.312 95.6505 176.757 95.7265C179.494 96.1718 182.35 97.3012 185.261 99.0823C186.955 100.114 188.617 101.352 190.213 102.742C190.995 103.426 191.766 104.154 192.483 104.903C194.937 107.445 197.946 111.333 198.662 115.709C205.906 118.381 210.924 124.897 211.836 132.847C212.77 141.046 209.11 148.746 202.268 152.938L201.942 153.144C201.497 153.437 200.986 153.763 200.433 153.98C200.281 154.046 200.118 154.067 199.966 154.067L199.944 154.078ZM200.672 148.724C200.791 149.582 200.845 150.462 200.834 151.363L201.149 151.168C207.296 147.399 210.587 140.481 209.74 133.096C208.904 125.733 204.158 119.749 197.37 117.49C196.979 117.36 196.708 117.023 196.664 116.611C196.219 112.56 193.319 108.802 190.963 106.369C190.289 105.664 189.572 104.979 188.823 104.339C187.324 103.025 185.75 101.863 184.164 100.885C182.003 99.5601 179.885 98.6262 177.843 98.1049C178.061 98.8217 178.245 99.5058 178.397 100.179C184.153 102.764 190.897 107.912 193.33 113.841C193.33 113.841 193.384 113.972 193.395 113.982C193.819 115.047 194.101 116.133 194.221 117.186C194.221 117.23 194.221 117.262 194.221 117.306C194.253 117.501 194.275 117.794 194.286 118.098C194.318 118.967 194.253 119.836 194.069 120.683C194.003 120.976 193.938 121.27 193.851 121.563L193.764 121.823C193.743 121.9 193.721 121.965 193.688 122.03C193.265 123.29 192.548 124.582 191.592 125.82C188.41 129.893 183.187 131.185 179.95 131.587C179.95 131.608 179.939 131.63 179.929 131.652C179.929 131.695 179.896 131.761 179.885 131.804C179.885 131.826 179.863 131.902 179.863 131.934C179.787 132.228 179.744 132.423 179.711 132.586C179.679 132.749 179.646 132.912 179.624 133.075C179.624 133.118 179.625 133.162 179.614 133.194L179.592 133.303C179.592 133.303 179.592 133.379 179.57 133.411V133.455C180.059 133.487 180.928 133.487 182.394 133.346C182.904 133.303 183.415 133.216 183.914 133.096L184.284 134.085L184.034 133.064C190.485 131.402 195.296 126.7 196.317 121.063C196.36 120.846 196.458 120.651 196.621 120.499C196.86 120.27 197.185 120.14 197.544 120.14C198.966 120.14 201.931 122.638 201.964 122.66C207.98 128.025 209.088 138.841 204.277 145.347C203.821 145.955 202.692 146.976 201.139 148.333L200.672 148.746V148.724ZM178.006 99.9946C178.006 99.9946 178.006 99.9946 178.017 99.9946C178.017 99.9946 178.017 99.9946 178.006 99.9946Z" fill="#D85B31"/>
<path d="M190.726 155.984C190.726 155.984 190.661 155.984 190.628 155.984C189.043 155.843 187.707 155.593 187.208 155.506L187.077 155.484C187.077 155.484 187.045 155.484 187.034 155.484C181.321 154.713 175.218 149.957 172.84 144.429C169.853 137.5 170.461 129.724 174.458 123.642C178.118 118.071 184.102 114.867 190.867 114.857C191.324 114.857 191.736 115.161 191.867 115.595C192.04 116.16 192.171 116.735 192.236 117.289C192.236 117.333 192.236 117.376 192.236 117.42C192.268 117.713 192.29 117.952 192.29 118.169C192.323 118.842 192.268 119.526 192.127 120.189C192.029 120.656 191.628 121.003 191.15 121.025C185.589 121.275 181.158 124.24 178.986 129.159L178.824 129.54C178.737 129.735 178.661 129.941 178.595 130.137C178.53 130.311 178.476 130.495 178.411 130.68C178.324 130.93 178.281 131.082 178.248 131.234C178.215 131.353 178.194 131.429 178.172 131.516C178.096 131.798 178.042 132.026 177.998 132.265C177.955 132.483 177.922 132.711 177.879 132.928C177.879 132.96 177.879 132.993 177.868 133.026C177.846 133.123 177.835 133.221 177.824 133.33C177.803 133.471 177.792 133.569 177.781 133.677C177.77 133.829 177.748 133.949 177.748 134.068L177.727 134.448C177.727 134.568 177.716 134.676 177.716 134.796C177.716 134.97 177.705 135.078 177.705 135.176V135.491C177.705 135.882 177.716 136.251 177.748 136.631C177.857 138.108 178.161 139.585 178.65 141.008C178.65 141.04 178.671 141.062 178.671 141.095C178.715 141.214 178.747 141.301 178.78 141.377C180.203 145.135 183.526 148.034 187.468 148.957C189.26 149.381 190.259 149.49 191.367 149.598C191.834 149.642 192.214 149.989 192.301 150.456C192.312 150.532 192.323 150.619 192.334 150.695C192.486 151.998 192.355 153.367 191.932 154.735C191.921 154.779 191.91 154.811 191.888 154.855L191.649 155.387C191.476 155.767 191.106 156.006 190.694 156.006L190.726 155.984ZM187.294 153.399C187.294 153.399 187.338 153.399 187.36 153.399L187.588 153.443C187.979 153.519 188.902 153.682 190.042 153.812C190.248 153.063 190.346 152.313 190.324 151.575C189.434 151.477 188.456 151.314 187.012 150.977C182.407 149.891 178.519 146.492 176.858 142.105C176.804 141.964 176.749 141.822 176.706 141.67C176.706 141.67 176.706 141.67 176.706 141.659C176.163 140.063 175.815 138.412 175.696 136.762C175.663 136.349 175.641 135.925 175.641 135.502C175.641 135.361 175.641 135.241 175.641 135.132C175.641 135.002 175.641 134.85 175.663 134.698C175.663 134.611 175.663 134.459 175.674 134.296L175.707 133.905C175.707 133.764 175.728 133.623 175.75 133.482C175.75 133.362 175.772 133.21 175.794 133.058C175.794 132.96 175.826 132.819 175.848 132.678C175.848 132.656 175.848 132.646 175.848 132.624C175.891 132.374 175.935 132.113 175.978 131.864C176.032 131.581 176.098 131.31 176.163 131.038C176.184 130.94 176.217 130.799 176.261 130.669C176.304 130.506 176.358 130.311 176.423 130.104C176.51 129.844 176.575 129.637 176.651 129.431C176.738 129.192 176.825 128.964 176.923 128.736L177.097 128.334C179.453 122.991 184.308 119.559 190.216 119.005C190.238 118.755 190.238 118.506 190.216 118.256C190.216 118.071 190.194 117.897 190.172 117.691V117.572C190.172 117.572 190.151 117.528 190.151 117.506C190.129 117.333 190.096 117.148 190.053 116.974C184.34 117.224 179.323 120.048 176.195 124.794C172.59 130.289 172.047 137.315 174.751 143.603C176.825 148.425 182.331 152.737 187.284 153.41L187.294 153.399Z" fill="#D85B31"/>
<path d="M123.697 102.57C123.512 102.57 123.327 102.526 123.154 102.45C122.708 102.244 122.415 101.788 122.415 101.299C122.415 97.0851 124.044 93.1212 127.031 90.1237C130.05 87.0938 134.209 85.3561 138.445 85.3561C140.128 85.3561 141.801 85.6276 143.408 86.1598C143.799 86.2901 144.114 86.6051 144.233 87.0177C144.353 87.4304 144.266 87.8648 143.994 88.1906C143.104 89.2875 142.322 90.3301 141.638 91.3835C141.366 91.7853 140.899 92.0026 140.432 91.9483C139.965 91.894 139.477 91.8722 138.988 91.8722C135.165 91.8722 132.059 93.4904 130.256 96.4444C129.854 97.1068 129.605 97.7584 129.333 98.4644L129.257 98.6598C129.17 98.8879 129.007 99.0834 128.79 99.2028C127.324 100.104 125.89 101.136 124.533 102.276C124.294 102.472 124.001 102.58 123.708 102.58L123.697 102.57ZM138.445 87.463C134.763 87.463 131.147 88.9726 128.519 91.6116C126.357 93.7836 125.011 96.5312 124.631 99.5178C125.543 98.8227 126.477 98.1711 127.433 97.5847C127.704 96.8679 127.997 96.1403 128.464 95.3584C130.669 91.7636 134.394 89.7871 138.988 89.7871C139.379 89.7871 139.77 89.7979 140.161 89.8305C140.606 89.1681 141.095 88.5056 141.616 87.8323C140.573 87.5825 139.52 87.463 138.456 87.463H138.445Z" fill="#D85B31"/>
<path d="M137.181 174.607C137.094 174.607 137.007 174.607 136.909 174.575C134.238 173.999 131.468 172.859 128.677 171.197C127.743 170.643 126.809 170.024 125.897 169.362C124.735 168.515 123.627 167.613 122.617 166.679C119.066 163.389 116.655 159.49 115.656 155.417C115.537 154.95 115.439 154.473 115.363 154.006C115.015 151.92 115.048 149.879 115.471 147.924C115.526 147.685 115.558 147.533 115.591 147.381C117.166 141.093 122.476 136.695 130.165 135.315L130.491 135.261C130.828 135.207 131.273 135.142 131.772 135.076C132.565 134.979 133.706 134.859 134.607 134.859C135.128 134.859 135.53 134.903 135.834 134.989C135.943 135.022 136.084 135.087 136.182 135.152C136.475 135.359 136.638 135.695 136.627 136.043C136.627 136.206 136.627 136.358 136.594 136.51C136.529 137.639 136.323 138.845 135.997 140.029C135.856 140.528 135.432 140.887 134.922 140.952C130.556 141.527 125.256 142.7 123.019 146.773C122.378 147.946 121.966 149.129 121.781 150.313C121.759 150.433 121.749 150.541 121.738 150.65C121.542 152.29 121.803 153.973 122.487 155.646C122.498 155.667 122.53 155.732 122.541 155.765C124.181 159.653 128.275 163.628 133.51 166.386C134.151 166.723 135.454 167.222 136.399 167.537C136.844 167.689 137.17 168.07 137.246 168.537C137.365 169.286 137.528 170.068 137.756 170.904L137.8 171.045C137.963 171.643 138.158 172.262 138.375 172.87C138.538 173.304 138.441 173.793 138.137 174.151C137.887 174.434 137.539 174.586 137.181 174.586V174.607ZM134.466 136.955C133.847 136.955 132.989 137.031 132.033 137.151C131.577 137.205 131.164 137.27 130.839 137.324L130.513 137.379C123.692 138.606 118.99 142.44 117.622 147.891L117.535 148.293C117.155 150.063 117.122 151.844 117.426 153.658C117.491 154.082 117.578 154.494 117.687 154.907C118.599 158.589 120.793 162.129 124.04 165.137C124.996 166.017 126.038 166.875 127.135 167.668C127.993 168.298 128.873 168.873 129.752 169.394C131.859 170.643 133.934 171.577 135.943 172.164C135.888 171.979 135.834 171.784 135.78 171.599C135.78 171.599 135.747 171.469 135.736 171.458C135.541 170.73 135.389 170.035 135.269 169.373C134.346 169.047 133.217 168.602 132.544 168.243C126.896 165.268 122.444 160.902 120.63 156.579L120.576 156.449C119.75 154.44 119.446 152.409 119.685 150.422C119.696 150.291 119.718 150.15 119.739 150.009C119.957 148.586 120.445 147.153 121.206 145.763C123.79 141.049 129.383 139.616 134.129 138.953C134.292 138.291 134.401 137.618 134.477 136.944L134.466 136.955Z" fill="#D85B31"/>
<path d="M138.664 185.012C133.939 185.012 129.498 183.176 126.489 179.962C123.785 177.073 122.504 173.391 122.764 169.319C122.797 168.841 123.079 168.428 123.514 168.233C123.948 168.037 124.459 168.102 124.828 168.396C125.197 168.689 125.577 168.982 125.957 169.254C126.793 169.873 128.531 170.959 128.803 171.132C128.987 171.241 129.139 171.404 129.226 171.599C129.27 171.697 129.302 171.795 129.313 171.893C129.356 172.208 129.519 172.946 129.628 173.152C131.083 176.074 133.201 177.768 136.101 178.333C136.752 178.463 138.816 178.745 140.445 178.528C140.749 178.485 141.042 178.582 141.27 178.778C141.357 178.854 141.433 178.952 141.498 179.06C141.867 179.625 142.269 180.201 142.725 180.798L142.812 180.917C143.16 181.384 143.529 181.851 143.931 182.329C144.213 182.666 144.3 183.122 144.17 183.546C144.039 183.958 143.714 184.273 143.29 184.393C141.77 184.805 140.206 185.001 138.653 185.001L138.664 185.012ZM124.85 171.035C125.002 173.891 126.077 176.465 128.021 178.539C130.627 181.33 134.504 182.927 138.664 182.927C139.619 182.927 140.575 182.84 141.52 182.666C141.4 182.514 141.281 182.362 141.161 182.21L141.064 182.079C140.705 181.602 140.38 181.145 140.075 180.689C137.969 180.841 135.818 180.429 135.721 180.407C132.18 179.712 129.509 177.594 127.771 174.097C127.771 174.086 127.467 173.38 127.336 172.675C126.707 172.273 125.566 171.545 124.85 171.035Z" fill="#D85B31"/>
<path d="M150.868 180.116C150.509 180.116 150.151 179.975 149.901 179.682C148.978 178.628 148.153 177.553 147.436 176.456C147.077 175.924 147.186 175.196 147.686 174.773C148.978 173.687 150.238 171.754 151.345 169.158C154.289 162.262 153.648 155.822 149.38 149.49C149.065 149.056 149.076 148.448 149.423 148.002C150.249 146.895 151.15 145.787 152.106 144.723C152.605 144.18 153.517 144.191 153.995 144.723C154.821 145.624 155.831 147.123 156.993 149.165C158.155 147.123 159.165 145.635 159.99 144.723C160.479 144.191 161.391 144.191 161.88 144.723C162.868 145.809 163.769 146.927 164.584 148.024C164.91 148.459 164.921 149.067 164.595 149.523C160.338 155.833 159.697 162.273 162.64 169.169C163.748 171.765 165.018 173.708 166.3 174.784C166.799 175.196 166.908 175.924 166.55 176.467C165.844 177.553 165.008 178.628 164.095 179.682C163.617 180.181 162.89 180.257 162.358 179.866C161.098 178.921 159.979 177.727 158.915 176.217C158.307 175.338 157.514 173.991 156.982 173.046C156.385 174.11 155.624 175.381 155.049 176.217C153.984 177.738 152.866 178.932 151.617 179.866C151.389 180.04 151.128 180.127 150.857 180.127L150.868 180.116ZM150.379 178.183C150.379 178.183 150.368 178.183 150.357 178.194C150.357 178.194 150.368 178.194 150.379 178.183ZM157.004 168.604C157.579 168.604 158.035 169.071 158.046 169.636C158.046 170.298 158.231 170.961 158.567 171.558C158.958 172.264 159.958 174.013 160.653 175.012C161.413 176.098 162.195 176.988 163.031 177.705C163.52 177.108 163.987 176.5 164.421 175.881C163.074 174.556 161.836 172.579 160.729 169.983C157.557 162.555 158.155 155.626 162.564 148.806C162.064 148.144 161.521 147.481 160.968 146.84C160.294 147.742 159.469 149.034 158.567 150.652C158.242 151.239 158.057 151.901 158.057 152.564C158.057 153.139 157.59 153.595 157.014 153.595C156.439 153.595 155.983 153.139 155.972 152.564C155.961 151.89 155.776 151.228 155.451 150.642C154.386 148.752 153.604 147.568 153.05 146.83C152.497 147.47 151.964 148.133 151.454 148.806C155.863 155.637 156.461 162.566 153.289 169.983C152.182 172.568 150.944 174.545 149.597 175.881C150.021 176.5 150.487 177.097 150.987 177.694C151.834 176.967 152.616 176.076 153.365 175.001C153.843 174.317 154.582 173.089 155.451 171.547C155.776 170.961 155.961 170.298 155.972 169.625C155.972 169.049 156.45 168.593 157.014 168.593L157.004 168.604ZM149.173 175.305C149.173 175.305 149.173 175.316 149.184 175.327C149.184 175.327 149.184 175.327 149.173 175.305ZM162.901 149.262C162.901 149.262 162.912 149.284 162.922 149.295C162.922 149.295 162.912 149.273 162.901 149.262ZM151.107 149.251C151.107 149.251 151.096 149.262 151.085 149.273C151.085 149.273 151.096 149.262 151.107 149.251ZM162.879 148.328C162.879 148.328 162.857 148.35 162.857 148.361C162.857 148.35 162.879 148.339 162.879 148.328ZM151.096 148.307C151.096 148.307 151.117 148.339 151.128 148.35C151.128 148.339 151.107 148.317 151.096 148.307Z" fill="#D85B31"/>
<path d="M114.041 154.077C113.889 154.077 113.726 154.044 113.574 153.99C113.02 153.773 112.51 153.447 112.065 153.153L111.739 152.947C104.897 148.755 101.226 141.055 102.171 132.856C103.083 124.895 108.101 118.39 115.344 115.718C116.072 111.342 119.069 107.454 121.524 104.913C122.241 104.174 123.001 103.447 123.794 102.751C125.379 101.361 127.041 100.123 128.746 99.0916C131.656 97.3105 134.513 96.1811 137.249 95.7358C137.695 95.6706 138.162 95.8444 138.455 96.2028C138.748 96.5611 138.813 97.0499 138.65 97.4843L138.216 98.5811C137.955 99.4282 137.749 100.232 137.575 101.036C137.488 101.448 137.206 101.785 136.826 101.948C131.385 104.294 124.88 109.137 122.621 114.643L121.6 114.372L122.577 114.763C122.23 115.642 121.991 116.533 121.893 117.391C121.893 117.413 121.893 117.434 121.893 117.456C121.86 117.695 121.839 117.934 121.839 118.173C121.806 118.879 121.871 119.563 122.012 120.236C122.067 120.475 122.121 120.714 122.197 120.953L122.273 121.192C122.273 121.192 122.306 121.29 122.317 121.311C122.686 122.397 123.283 123.484 124.098 124.526C127.041 128.295 132.178 129.305 134.98 129.576C135.381 129.62 135.729 129.88 135.859 130.26C135.892 130.358 135.935 130.467 135.968 130.575C135.968 130.575 135.968 130.608 135.99 130.63C135.99 130.651 136 130.662 136.011 130.673C136.055 130.814 136.109 130.966 136.152 131.151C136.207 131.325 136.218 131.401 136.239 131.477C136.304 131.716 136.359 131.965 136.402 132.182C136.435 132.378 136.478 132.573 136.511 132.769C136.511 132.802 136.511 132.834 136.522 132.867V132.943C136.522 132.943 136.543 132.997 136.543 133.03C136.554 133.106 136.565 133.171 136.576 133.258L136.619 133.583C136.619 133.583 136.619 133.659 136.619 133.703L136.641 133.877C136.641 133.877 136.641 133.953 136.641 133.985V134.224C136.641 134.42 136.587 134.626 136.478 134.789C136.131 135.321 135.294 135.777 131.45 135.408C130.842 135.354 130.223 135.256 129.625 135.104L129.43 135.05C122.642 133.312 117.44 128.436 115.909 122.484C115.138 122.93 113.943 123.777 113.476 124.189C108.198 128.892 107.243 138.362 111.456 144.074C111.815 144.552 113.303 145.866 114.291 146.735L115.105 147.452C115.431 147.745 115.583 148.18 115.507 148.603C115.29 149.917 115.236 151.275 115.366 152.665C115.409 153.121 115.214 153.544 114.856 153.805C114.628 153.968 114.367 154.055 114.095 154.055L114.041 154.077ZM136.142 98.0924C134.111 98.6137 131.993 99.5477 129.832 100.873C128.235 101.85 126.671 103.012 125.173 104.326C124.423 104.978 123.707 105.662 123.033 106.357C120.677 108.79 117.777 112.547 117.332 116.598C117.288 117 117.006 117.348 116.626 117.478C109.838 119.748 105.092 125.721 104.256 133.084C103.409 140.469 106.7 147.398 112.846 151.155L113.161 151.351C113.161 150.46 113.205 149.58 113.324 148.712L112.857 148.299C111.304 146.931 110.175 145.921 109.719 145.312C104.908 138.807 106.005 127.99 112.032 122.626C112.065 122.604 115.029 120.106 116.452 120.106C116.81 120.106 117.136 120.236 117.375 120.464C117.527 120.616 117.636 120.812 117.679 121.029C118.689 126.666 123.5 131.368 129.94 133.019L130.103 133.062C130.57 133.182 131.081 133.258 131.591 133.312C133.068 133.453 133.937 133.453 134.426 133.421V133.377C134.426 133.377 134.404 133.301 134.404 133.258L134.382 133.149C134.382 133.149 134.371 133.062 134.371 133.019C134.35 132.867 134.317 132.715 134.284 132.552C134.252 132.378 134.208 132.182 134.154 131.976C134.154 131.954 134.132 131.889 134.132 131.868C134.122 131.835 134.089 131.705 134.078 131.672C134.078 131.629 134.056 131.596 134.046 131.553C130.809 131.151 125.596 129.858 122.403 125.775C121.437 124.548 120.731 123.255 120.286 121.941C120.286 121.92 120.253 121.854 120.231 121.789L120.155 121.55C120.058 121.235 119.992 120.942 119.927 120.649C119.743 119.802 119.678 118.933 119.71 118.064C119.71 117.782 119.743 117.51 119.775 117.228C119.775 117.206 119.775 117.185 119.775 117.163C119.895 116.109 120.177 115.023 120.601 113.959L120.677 113.775C123.088 107.888 129.832 102.741 135.588 100.156C135.74 99.4608 135.924 98.7658 136.142 98.0816V98.0924ZM135.979 99.993C135.979 99.993 135.979 99.993 135.968 99.993C135.968 99.993 135.968 99.993 135.979 99.993Z" fill="#D85B31"/>
<path d="M123.275 155.984C122.863 155.984 122.493 155.745 122.32 155.365L122.081 154.833C122.081 154.833 122.048 154.757 122.037 154.713C121.614 153.356 121.483 151.987 121.635 150.652C121.635 150.597 121.646 150.521 121.668 150.445C121.755 149.978 122.135 149.631 122.602 149.587C123.71 149.49 124.698 149.37 126.501 148.957C130.443 148.024 133.766 145.124 135.178 141.388C135.222 141.268 135.265 141.16 135.298 141.051C135.298 141.04 135.298 141.019 135.308 141.008C135.797 139.574 136.101 138.108 136.21 136.631C136.242 136.251 136.253 135.871 136.253 135.502V135.241C136.253 135.078 136.253 134.97 136.242 134.872C136.242 134.676 136.242 134.568 136.232 134.448L136.21 134.068C136.21 133.949 136.188 133.829 136.177 133.71C136.177 133.569 136.156 133.471 136.145 133.373C136.123 133.221 136.112 133.123 136.101 133.026C136.101 132.993 136.101 132.96 136.09 132.928C136.058 132.711 136.014 132.483 135.971 132.265C135.927 132.026 135.873 131.798 135.808 131.559C135.775 131.429 135.765 131.353 135.743 131.277C135.689 131.071 135.645 130.93 135.591 130.778C135.504 130.495 135.439 130.311 135.374 130.137C135.298 129.941 135.222 129.735 135.146 129.54L134.983 129.159C132.821 124.261 128.391 121.297 122.83 121.036C122.352 121.014 121.95 120.678 121.853 120.2C121.712 119.537 121.657 118.853 121.69 118.147C121.69 117.952 121.712 117.713 121.744 117.441V117.365C121.744 117.365 121.755 117.311 121.755 117.289C121.831 116.735 121.95 116.16 122.124 115.595C122.255 115.161 122.667 114.857 123.123 114.857C129.889 114.857 135.873 118.071 139.533 123.642C143.53 129.724 144.138 137.489 141.151 144.429C138.773 149.957 132.669 154.713 126.957 155.484C126.946 155.484 126.924 155.484 126.914 155.484L126.783 155.506C126.609 153.823 124.535 153.595 123.677 151.586Z" fill="#D85B31"/>
<path d="M282.021 133.165C283.856 133.165 285.344 131.677 285.344 129.841C285.344 128.006 283.856 126.518 282.021 126.518C280.185 126.518 278.698 128.006 278.698 129.841C278.698 131.677 280.185 133.165 282.021 133.165Z" fill="#D85B31"/>
<path d="M263.676 133.165C265.511 133.165 266.999 131.677 266.999 129.841C266.999 128.006 265.511 126.518 263.676 126.518C261.84 126.518 260.353 128.006 260.353 129.841C260.353 131.677 261.84 133.165 263.676 133.165Z" fill="#D85B31"/>
<path d="M245.331 133.165C247.166 133.165 248.654 131.677 248.654 129.841C248.654 128.006 247.166 126.518 245.331 126.518C243.496 126.518 242.008 128.006 242.008 129.841C242.008 131.677 243.496 133.165 245.331 133.165Z" fill="#D85B31"/>
<path d="M68.6578 133.165C70.4931 133.165 71.981 131.677 71.981 129.841C71.981 128.006 70.4931 126.518 68.6578 126.518C66.8224 126.518 65.3345 128.006 65.3345 129.841C65.3345 131.677 66.8224 133.165 68.6578 133.165Z" fill="#D85B31"/>
<path d="M50.3182 133.165C52.1536 133.165 53.6414 131.677 53.6414 129.841C53.6414 128.006 52.1536 126.518 50.3182 126.518C48.4829 126.518 46.995 128.006 46.995 129.841C46.995 131.677 48.4829 133.165 50.3182 133.165Z" fill="#D85B31"/>
<path d="M31.968 133.165C33.8034 133.165 35.2912 131.617 35.2912 129.841C35.2912 128.006 33.8034 126.518 31.968 126.518C30.1326 126.518 28.6448 128.006 28.6448 129.841C28.6448 131.677 30.1326 133.165 31.968 133.165Z" fill="#D85B31"/>
</svg>
