<svg width="616" height="616" viewBox="0 0 616 616" fill="none" xmlns="http://www.w3.org/2000/svg">
<g filter="url(#filter0_n_3671_128)">
<rect width="616" height="616" fill="url(#paint0_linear_3671_128)"/>
<rect width="336" height="475" transform="translate(140 71)" fill="#F2F1E3"/>
<path d="M281.824 128.301C279.869 126.346 279.518 125.644 279.518 123.439C279.518 122.085 280.922 117.774 280.922 117.574C281.573 116.371 282.526 114.316 282.526 113.865C282.526 112.912 279.067 111.709 277.112 111.709C274.305 111.709 271.949 115.469 270.897 117.824L266.937 121.734C265.734 122.486 265.132 123.639 264.13 124.541C261.323 126.997 257.563 128.301 253.854 128.301C249.894 128.301 245.784 126.296 244.28 122.336C244.28 121.985 244.982 120.381 245.483 120.381C246.285 120.381 246.987 121.434 247.789 121.734C249.042 122.185 250.997 122.737 251.999 122.737C252.25 122.737 254.104 122.236 254.305 122.236C257.363 122.236 260.22 120.882 262.726 119.178C267.187 117.624 269.293 112.411 272.049 109.654C276.059 105.644 283.779 96.1702 290.446 92.6614C291.749 92.4108 293.403 91.4584 294.656 91.4584H300.02C300.22 91.4584 301.423 91.8093 301.423 92.2604C301.423 94.115 300.02 94.9672 298.416 95.6689C298.165 96.0198 297.213 97.8745 297.012 98.2253C294.606 101.784 292.35 103.489 290.696 107.549C290.696 107.549 286.185 117.223 286.035 117.824C285.684 119.178 285.082 121.985 285.082 123.388C285.082 124.14 285.784 125.143 285.784 125.945C285.784 127.499 284.23 128.501 282.826 128.501C282.476 128.501 282.125 128.401 281.824 128.301ZM277.864 109.153C278.014 109.103 278.215 109.103 278.415 109.103C279.518 109.103 280.922 109.403 284.631 109.403C284.781 109.153 284.982 108.501 285.333 108.25C286.987 107.198 291.498 99.3782 292.1 99.3782C293.804 97.1727 297.012 93.8644 297.012 93.4634C297.012 93.0123 296.06 92.9621 295.358 92.9621C289.894 92.9621 285.283 98.5261 281.824 101.935C280.821 104.14 277.613 105.243 277.613 108.351C277.613 108.702 277.613 108.952 277.864 109.153ZM294.659 128.501C291.952 128.501 291.1 127.098 291.1 125.444C291.1 124.491 291.401 123.238 291.852 122.436C294.96 116.772 298.669 108.902 302.128 104.04C303.983 101.484 302.93 98.4258 306.689 98.4258C307.341 98.4258 308.644 98.7767 308.644 99.5787C308.644 101.784 306.188 104.24 305.136 106.145C302.579 110.907 299.471 115.519 297.466 120.381C297.466 120.531 295.812 124.04 295.812 124.491C295.812 125.494 296.163 125.845 296.714 125.845C297.617 125.845 298.92 124.942 299.622 124.942C299.822 124.942 300.023 125.093 300.023 125.343C300.023 126.346 296.263 128.501 294.659 128.501ZM301.389 127.048C301.389 126.446 301.891 126.346 302.091 125.895C305.199 123.439 305.6 113.313 310.512 113.313C312.016 113.313 312.116 113.564 312.818 114.717C314.372 114.717 315.725 113.313 317.48 113.313C318.783 113.313 320.036 115.418 320.989 115.418C321.941 115.418 324.698 113.063 326.603 113.063C328.357 113.063 330.061 114.215 330.061 116.02C330.061 117.373 328.407 119.028 325.851 124.742C325.851 125.544 326.101 125.794 326.753 125.794C327.304 125.794 327.956 125.594 328.407 125.444C328.407 125.444 328.658 125.444 328.658 126.145C328.658 126.797 326.703 128 324.698 128C322.893 128 320.989 127.248 320.989 125.293C320.989 122.135 325.4 119.028 325.4 116.22C325.4 115.769 325.049 115.418 324.598 115.418C322.041 115.418 321.59 116.922 319.786 118.426L315.174 127.298C314.873 127.9 314.021 128 313.269 128C312.267 128 310.963 128.05 310.963 127.298C310.963 123.439 316.327 120.03 316.327 116.22C316.327 115.619 315.876 115.368 315.324 115.368C307.856 115.368 307.956 128.351 304.547 128.351C303.795 128.351 301.389 128.551 301.389 127.048ZM340.617 126.446H340.116C338.512 126.446 337.008 128.401 334.452 128.401C331.194 128.401 330.592 126.045 330.592 123.739C330.592 118.376 337.61 113.363 342.472 113.363C343.625 113.363 344.577 114.316 345.73 114.316C346.332 114.316 346.332 113.614 346.933 113.614H349.74C350.141 113.614 350.141 114.516 350.141 114.767C350.141 116.17 347.384 119.429 346.683 121.083C346.332 121.885 345.279 123.639 345.279 124.692C345.279 125.393 345.981 125.744 346.532 125.744C347.334 125.744 348.086 125.043 348.888 125.043C349.239 125.043 349.74 125.043 349.74 125.494C349.74 125.694 346.883 128.551 344.477 128.551C342.021 128.551 341.47 128.301 340.617 126.446ZM335.254 124.692C335.254 125.444 335.705 125.694 336.307 125.694C337.81 125.694 340.317 124.19 340.367 124.14C341.871 123.288 344.577 117.724 344.577 116.321C344.577 115.519 343.775 115.469 343.124 115.469C338.963 115.469 335.254 120.682 335.254 124.692Z" fill="#C8B698"/>
<path d="M360.536 114.329H361.529L363.027 117.416L364.525 114.329H365.488V118.853H364.494V116.545L363.363 118.853H362.66L361.514 116.53V118.853H360.536V114.329ZM357.632 115.307H356.058V114.329H360.245V115.307H358.656V118.853H357.632V115.307Z" fill="#C8B698"/>
<g filter="url(#filter1_n_3671_128)">
<rect x="155" y="150" width="307" height="382" rx="10" fill="url(#paint1_linear_3671_128)"/>
<path d="M232.156 330.771C232.156 332.597 233.145 333.798 234.536 333.798C235.525 333.798 236.244 333.198 236.503 332.208L237.917 332.691C237.422 334.187 236.244 335.13 234.536 335.13C232.285 335.13 230.648 333.339 230.648 330.771C230.648 328.202 232.285 326.412 234.536 326.412C236.244 326.412 237.422 327.354 237.917 328.85L236.503 329.333C236.244 328.344 235.525 327.743 234.536 327.743C233.145 327.743 232.156 328.945 232.156 330.771ZM243.807 330.771C243.807 328.202 245.456 326.412 247.742 326.412C250.027 326.412 251.676 328.202 251.676 330.771C251.676 333.339 250.027 335.13 247.742 335.13C245.456 335.13 243.807 333.339 243.807 330.771ZM250.169 330.771C250.169 328.933 249.167 327.743 247.742 327.743C246.316 327.743 245.315 328.933 245.315 330.771C245.315 332.608 246.316 333.798 247.742 333.798C249.167 333.798 250.169 332.608 250.169 330.771ZM259.658 331.725V335H258.15V326.541H261.531C263.416 326.541 264.594 327.425 264.594 329.133C264.594 330.464 263.863 331.313 262.626 331.607L264.806 335H263.086L261.024 331.725H259.658ZM259.658 330.429H261.448C262.532 330.429 263.109 329.958 263.109 329.133C263.109 328.297 262.532 327.837 261.448 327.837H259.658V330.429ZM271.148 326.541H276.873V327.861H272.632V329.981H276.202V331.301H272.632V333.681H276.873V335H271.148V326.541ZM296.015 335H294.789L292.575 328.462V335H291.173V326.541H293.246L295.426 333.021L297.605 326.541H299.631V335H298.229V328.462L296.015 335ZM306.529 326.541H312.255V327.861H308.014V329.981H311.583V331.301H308.014V333.681H312.255V335H306.529V326.541ZM318.825 335V326.541H321.653C324.28 326.541 325.906 328.191 325.906 330.771C325.906 333.351 324.28 335 321.653 335H318.825ZM320.298 333.704H321.653C323.396 333.704 324.421 332.55 324.421 330.771C324.421 328.98 323.396 327.837 321.641 327.837H320.298V333.704ZM333.895 326.541V335H332.387V326.541H333.895ZM341.867 330.771C341.867 332.597 342.856 333.798 344.246 333.798C345.236 333.798 345.955 333.198 346.214 332.208L347.628 332.691C347.133 334.187 345.955 335.13 344.246 335.13C341.996 335.13 340.359 333.339 340.359 330.771C340.359 328.202 341.996 326.412 344.246 326.412C345.955 326.412 347.133 327.354 347.628 328.85L346.214 329.333C345.955 328.344 345.236 327.743 344.246 327.743C342.856 327.743 341.867 328.945 341.867 330.771ZM355.462 326.541V335H353.954V326.541H355.462ZM369.324 326.541V335H368.004L363.81 328.792V335H362.361V326.541H363.916L367.875 332.467V326.541H369.324ZM376.222 326.541H381.948V327.861H377.707V329.981H381.276V331.301H377.707V333.681H381.948V335H376.222V326.541ZM188.947 347.541H190.278L191.857 353.75L193.459 347.541H194.967L192.682 356H191.197L189.595 350.039L188.005 356H186.52L184.223 347.541H185.778L187.38 353.75L188.947 347.541ZM202.691 347.541V356H201.183V347.541H202.691ZM215.917 348.861H213.196V356H211.688V348.861H208.966V347.541H215.917V348.861ZM227.758 347.541H229.266V356H227.758V352.301H223.705V356H222.198V347.541H223.705V350.981H227.758V347.541ZM235.738 351.771C235.738 349.202 237.387 347.412 239.672 347.412C241.958 347.412 243.607 349.202 243.607 351.771C243.607 354.339 241.958 356.13 239.672 356.13C237.387 356.13 235.738 354.339 235.738 351.771ZM242.099 351.771C242.099 349.933 241.098 348.743 239.672 348.743C238.247 348.743 237.245 349.933 237.245 351.771C237.245 353.608 238.247 354.798 239.672 354.798C241.098 354.798 242.099 353.608 242.099 351.771ZM253.355 356.118C251.341 356.118 249.951 354.975 249.951 352.642V347.541H251.459V352.595C251.459 354.139 252.224 354.787 253.355 354.787C254.498 354.787 255.264 354.139 255.264 352.595V347.541H256.772V352.642C256.772 354.975 255.382 356.118 253.355 356.118ZM269.876 348.861H267.155V356H265.647V348.861H262.926V347.541H269.876V348.861ZM285.394 347.541V356H283.886V347.541H285.394ZM299.256 347.541V356H297.936L293.742 349.792V356H292.293V347.541H293.848L297.807 353.467V347.541H299.256ZM312.48 348.861H309.759V356H308.251V348.861H305.53V347.541H312.48V348.861ZM318.761 347.541H324.486V348.861H320.245V350.981H323.815V352.301H320.245V354.681H324.486V356H318.761V347.541ZM332.565 352.725V356H331.057V347.541H334.438C336.323 347.541 337.501 348.425 337.501 350.133C337.501 351.464 336.771 352.313 335.534 352.607L337.713 356H335.993L333.932 352.725H332.565ZM332.565 351.429H334.356C335.44 351.429 336.017 350.958 336.017 350.133C336.017 349.297 335.44 348.837 334.356 348.837H332.565V351.429ZM345.563 352.725V356H344.055V347.541H347.436C349.321 347.541 350.499 348.425 350.499 350.133C350.499 351.464 349.769 352.313 348.532 352.607L350.711 356H348.991L346.93 352.725H345.563ZM345.563 351.429H347.354C348.438 351.429 349.015 350.958 349.015 350.133C349.015 349.297 348.438 348.837 347.354 348.837H345.563V351.429ZM360.328 356.118C358.314 356.118 356.924 354.975 356.924 352.642V347.541H358.431V352.595C358.431 354.139 359.197 354.787 360.328 354.787C361.471 354.787 362.237 354.139 362.237 352.595V347.541H363.745V352.642C363.745 354.975 362.354 356.118 360.328 356.118ZM372.031 352.725V356L370.523 356V347.541L373.904 347.541C375.789 347.541 376.967 348.425 376.967 350.133C376.967 351.818 375.789 352.725 373.904 352.725H372.031ZM372.031 351.429H373.821C374.905 351.429 375.483 350.958 375.483 350.133C375.483 349.297 374.905 348.837 373.821 348.837H372.031V351.429ZM389.594 348.861H386.873V356H385.365V348.861H382.643V347.541H389.594V348.861ZM397.382 347.541V356H395.875V347.541H397.382ZM403.846 351.771C403.846 349.202 405.496 347.412 407.781 347.412C410.067 347.412 411.716 349.202 411.716 351.771C411.716 354.339 410.067 356.13 407.781 356.13C405.496 356.13 403.846 354.339 403.846 351.771ZM410.208 351.771C410.208 349.933 409.207 348.743 407.781 348.743C406.356 348.743 405.354 349.933 405.354 351.771C405.354 353.608 406.356 354.798 407.781 354.798C409.207 354.798 410.208 353.608 410.208 351.771ZM425.151 347.541V356H423.832L419.638 349.792V356H418.189V347.541H419.744L423.702 353.467V347.541H425.151ZM431.72 356V354.292H433.428V356H431.72Z" fill="#F2EFD0"/>
</g>
</g>
<defs>
<filter id="filter0_n_3671_128" x="0" y="0" width="616" height="616" filterUnits="userSpaceOnUse" color-interpolation-filters="sRGB">
<feFlood flood-opacity="0" result="BackgroundImageFix"/>
<feBlend mode="normal" in="SourceGraphic" in2="BackgroundImageFix" result="shape"/>
<feTurbulence type="fractalNoise" baseFrequency="1 1" stitchTiles="stitch" numOctaves="3" result="noise" seed="4217" />
<feColorMatrix in="noise" type="luminanceToAlpha" result="alphaNoise" />
<feComponentTransfer in="alphaNoise" result="coloredNoise1">
<feFuncA type="discrete" tableValues="1 1 1 1 1 1 1 1 1 1 1 1 1 1 1 1 1 1 1 1 1 1 1 1 1 1 1 1 1 1 1 1 1 1 1 1 1 1 1 1 1 1 1 1 1 1 1 1 1 1 1 0 0 0 0 0 0 0 0 0 0 0 0 0 0 0 0 0 0 0 0 0 0 0 0 0 0 0 0 0 0 0 0 0 0 0 0 0 0 0 0 0 0 0 0 0 0 0 0 0 "/>
</feComponentTransfer>
<feComposite operator="in" in2="shape" in="coloredNoise1" result="noise1Clipped" />
<feFlood flood-color="rgba(0, 0, 0, 0.06)" result="color1Flood" />
<feComposite operator="in" in2="noise1Clipped" in="color1Flood" result="color1" />
<feMerge result="effect1_noise_3671_128">
<feMergeNode in="shape" />
<feMergeNode in="color1" />
</feMerge>
</filter>
<filter id="filter1_n_3671_128" x="155" y="150" width="307" height="382" filterUnits="userSpaceOnUse" color-interpolation-filters="sRGB">
<feFlood flood-opacity="0" result="BackgroundImageFix"/>
<feBlend mode="normal" in="SourceGraphic" in2="BackgroundImageFix" result="shape"/>
<feTurbulence type="fractalNoise" baseFrequency="1 1" stitchTiles="stitch" numOctaves="3" result="noise" seed="4217" />
<feColorMatrix in="noise" type="luminanceToAlpha" result="alphaNoise" />
<feComponentTransfer in="alphaNoise" result="coloredNoise1">
<feFuncA type="discrete" tableValues="1 1 1 1 1 1 1 1 1 1 1 1 1 1 1 1 1 1 1 1 1 1 1 1 1 1 1 1 1 1 1 1 1 1 1 1 1 1 1 1 1 1 1 1 1 1 1 1 1 1 1 0 0 0 0 0 0 0 0 0 0 0 0 0 0 0 0 0 0 0 0 0 0 0 0 0 0 0 0 0 0 0 0 0 0 0 0 0 0 0 0 0 0 0 0 0 0 0 0 0 "/>
</feComponentTransfer>
<feComposite operator="in" in2="shape" in="coloredNoise1" result="noise1Clipped" />
<feFlood flood-color="rgba(0, 0, 0, 0.06)" result="color1Flood" />
<feComposite operator="in" in2="noise1Clipped" in="color1Flood" result="color1" />
<feMerge result="effect1_noise_3671_128">
<feMergeNode in="shape" />
<feMergeNode in="color1" />
</feMerge>
</filter>
<linearGradient id="paint0_linear_3671_128" x1="308" y1="0" x2="308" y2="616" gradientUnits="userSpaceOnUse">
<stop offset="0.1" stop-color="#808D95"/>
<stop offset="0.5" stop-color="#B4A389"/>
<stop offset="1" stop-color="#DEDBBC"/>
</linearGradient>
<linearGradient id="paint1_linear_3671_128" x1="308.5" y1="532" x2="308.5" y2="150" gradientUnits="userSpaceOnUse">
<stop offset="0.1" stop-color="#808D95"/>
<stop offset="0.5" stop-color="#B4A389"/>
<stop offset="1" stop-color="#DEDBBC"/>
</linearGradient>
</defs>
</svg>
